<svg width="48" height="48" viewBox="0 0 48 48" fill="none" xmlns="http://www.w3.org/2000/svg">
<g clip-path="url(#clip0_1859_15037)">
<path d="M31.1884 9.72775H33.2222C34.409 9.72775 35.5484 9.91782 36.6118 10.2769C36.4956 8.53425 36.0933 6.86953 35.4019 5.67049C34.9228 4.8394 34.1461 4.25553 33.2148 4.02648C32.2842 3.79762 31.3262 3.95432 30.5172 4.46771L28.8516 5.52448C30.0567 6.60046 30.9035 8.06922 31.1884 9.72775Z" fill="#FEFEFE"/>
<path d="M0.181626 24.4739C0.181626 25.2503 0.81104 25.8797 1.5874 25.8797H2.2813C0.86549 27.4225 0 29.478 0 31.732V35.1309H19.7827V31.9112H17.7556C16.9793 31.9112 16.3498 31.2818 16.3498 30.5054C16.3498 29.729 16.9793 29.0996 17.7556 29.0996H19.7827V23.0684H1.5874C0.810946 23.0682 0.181626 23.6976 0.181626 24.4739ZM7.54228 29.0995H11.0463C11.8227 29.0995 12.4521 29.7289 12.4521 30.5053C12.4521 31.2817 11.8227 31.9111 11.0463 31.9111H7.54228C6.76591 31.9111 6.1365 31.2817 6.1365 30.5053C6.1365 29.7289 6.76582 29.0995 7.54228 29.0995Z" fill="#FEFEFE"/>
<path d="M24.0009 6.48242C21.9583 6.48242 20.2318 7.85615 19.6934 9.7278H28.3084C27.77 7.85615 26.0434 6.48242 24.0009 6.48242Z" fill="#FEFEFE"/>
<path d="M16.812 9.72776C17.0968 8.06913 17.9437 6.60037 19.1488 5.52448L17.4832 4.46762C16.6741 3.95432 15.7161 3.79762 14.7856 4.02648C13.8543 4.25553 13.0776 4.8393 12.5984 5.67049C11.9075 6.86869 11.5053 8.53181 11.3887 10.273C12.4488 9.9165 13.5842 9.72776 14.7668 9.72776H16.812Z" fill="#FEFEFE"/>
<path d="M8.05075 16.6527L6.06055 20.5548C6.89736 20.36 7.76904 20.2567 8.66433 20.2567H19.7833V12.5391H14.7669C11.8753 12.539 9.36459 14.0769 8.05075 16.6527Z" fill="#FEFEFE"/>
<path d="M28.2168 12.5392V20.2568H39.3357C40.227 20.2568 41.0949 20.3589 41.9284 20.5522L39.937 16.6508C38.6229 14.0761 36.1125 12.5391 33.2219 12.5391L28.2168 12.5392Z" fill="#FEFEFE"/>
<path d="M22.5938 12.5391H25.4053V35.1308H22.5938V12.5391Z" fill="#FEFEFE"/>
<path d="M45.7182 25.8799H46.4126C47.189 25.8799 47.8184 25.2505 47.8184 24.4741C47.8184 23.6978 47.189 23.0684 46.4126 23.0684H28.2168V29.0996H30.2355C31.0119 29.0996 31.6413 29.729 31.6413 30.5054C31.6413 31.2818 31.0119 31.9112 30.2355 31.9112H28.2168V35.1309H47.9995V31.732C47.9995 29.4781 47.134 27.4227 45.7182 25.8799ZM40.4722 31.9113H37.3258C36.5494 31.9113 35.92 31.2818 35.92 30.5055C35.92 29.7291 36.5494 29.0997 37.3258 29.0997H40.4722C41.2485 29.0997 41.878 29.7291 41.878 30.5055C41.878 31.2818 41.2486 31.9113 40.4722 31.9113Z" fill="#FEFEFE"/>
<path d="M0.00195312 40.8103C0.00195312 42.6113 1.46724 44.0767 3.26842 44.0767H8.134C9.93509 44.0767 11.4005 42.6114 11.4005 40.8103V37.9424H0.00195312V40.8103Z" fill="#FEFEFE"/>
<path d="M36.5996 40.8103C36.5996 42.6113 38.0649 44.0767 39.866 44.0767H44.7317C46.5328 44.0767 47.9981 42.6114 47.9981 40.8103V37.9424H36.5996V40.8103Z" fill="#FEFEFE"/>
</g>
<defs>
<clipPath id="clip0_1859_15037">
<rect width="48" height="48" fill="white"/>
</clipPath>
</defs>
</svg>
