<svg width="96" height="48" viewBox="0 0 96 48" fill="none" xmlns="http://www.w3.org/2000/svg">
<path d="M19.8232 15.7146L17.4062 17.5955C17.4062 17.5955 17.6558 16.2258 18.1482 15.7146C18.8915 14.9429 19.8232 15.7146 19.8232 15.7146Z" fill="#EBEDF0"/>
<path d="M70.3208 24.806C67.5502 24.0601 63.0162 24.0601 60.2456 24.806L9.74174 37.0654C2.33308 38.45 24.5693 45.9887 32.9892 44.2176C34.5683 43.8853 36.5031 43.4595 40.2924 42.481C47.8249 40.5357 68.114 35.2142 72.7534 33.6798C79.0998 31.5805 82.1445 30.676 83.0327 30.0725C83.9215 29.469 84.2568 28.557 81.4869 27.8112L70.3208 24.806Z" fill="#576485"/>
<path d="M64.0809 24.8684C63.188 28.1895 64.4413 31.4103 66.8801 32.0619C69.3181 32.7136 72.0187 30.5492 72.9116 27.2274C73.8045 23.9062 72.5511 20.6854 70.1124 20.0338C67.6737 19.3822 64.9738 21.5466 64.0809 24.8684Z" fill="#020206"/>
<path d="M66.8774 32.0627L70.4766 33.0243L73.7089 20.9966L70.1098 20.0351L66.8774 32.0627Z" fill="#020206"/>
<path d="M26.2215 35.0007C25.3286 38.3218 26.582 41.5426 29.0207 42.1942C31.4587 42.8459 34.1593 40.6815 35.0522 37.3597C35.9451 34.0385 34.6918 30.8177 32.253 30.1661C29.815 29.5145 27.1145 31.6788 26.2215 35.0007Z" fill="#020206"/>
<path d="M29.022 42.1943L32.6211 43.1559L35.8534 31.1282L32.2543 30.1667L29.022 42.1943Z" fill="#020206"/>
<path d="M76.9879 26.8212L70.653 24.8257L43.2089 33.1645L39.0673 38.3808L30.0781 36.9243L30.9643 29.3165L72.7973 17.8179L79.1239 22.0056L76.9879 26.8212Z" fill="#020206"/>
<path d="M80.6749 15.0677L79.8031 10.5308C79.8031 10.5308 79.1978 10.2806 78.1267 9.92937C72.0299 7.80772 50.7526 0.984379 38.5454 4.50691C27.6677 7.64566 16.9158 18.1305 16.9158 18.1305C16.9158 18.1305 10.5497 21.4076 7.39895 23.9307C4.02378 26.6341 3.15057 33.2628 4.8317 35.7045C7.18065 39.1159 21.5444 41.2111 23.0596 41.3935C25.5527 41.6932 27.1583 41.6932 28.6946 41.3935L28.6796 40.39C28.581 38.8419 28.6463 37.3644 28.9795 35.6957C29.7473 31.8511 32.9763 29.2752 35.6415 29.7112C38.1809 30.1268 39.9069 32.9075 39.065 38.3809L42.9019 36.5867C49.232 34.4725 56.0945 32.6031 63.6351 31.0476L66.4431 30.7154C66.4431 29.008 66.5628 27.5034 67.0314 25.6218C67.976 21.8253 71.1628 19.4928 73.7539 20.1851C76.1967 20.8374 77.4031 23.5645 76.9855 26.8213C77.8288 26.0483 78.6123 25.4665 79.9615 23.8913C80.4491 23.3218 81.2815 20.1851 81.2795 17.2484C81.2788 16.3343 80.6735 15.0684 80.6735 15.0684L80.6749 15.0677Z" fill="#EBEDF0"/>
<mask id="mask0_4748_7583" style="mask-type:luminance" maskUnits="userSpaceOnUse" x="4" y="3" width="78" height="39">
<path d="M80.6749 15.0677L79.8031 10.5308C79.8031 10.5308 79.1978 10.2806 78.1267 9.92937C72.0299 7.80772 50.7526 0.984379 38.5454 4.50691C27.6677 7.64566 16.9158 18.1305 16.9158 18.1305C16.9158 18.1305 10.5497 21.4076 7.39895 23.9307C4.02378 26.6341 3.15057 33.2628 4.8317 35.7045C7.18065 39.1159 21.5444 41.2111 23.0596 41.3935C25.5527 41.6932 27.1583 41.6932 28.6946 41.3935L28.6796 40.39C28.581 38.8419 28.6463 37.3644 28.9795 35.6957C29.7473 31.8511 32.9763 29.2752 35.6415 29.7112C38.1809 30.1268 39.9069 32.9075 39.065 38.3809L42.9019 36.5867C49.232 34.4725 56.0945 32.6031 63.6351 31.0476L66.4431 30.7154C66.4431 29.008 66.5628 27.5034 67.0314 25.6218C67.976 21.8253 71.1628 19.4928 73.7539 20.1851C76.1967 20.8374 77.4031 23.5645 76.9855 26.8213C77.8288 26.0483 78.6123 25.4665 79.9615 23.8913C80.4491 23.3218 81.2815 20.1851 81.2795 17.2484C81.2788 16.3343 80.6735 15.0684 80.6735 15.0684L80.6749 15.0677Z" fill="white"/>
</mask>
<g mask="url(#mask0_4748_7583)">
<path d="M54.6163 9.2662C63.7979 6.1722 70.0076 7.81854 74.8824 9.00854L75.102 8.91971C66.7481 6.23594 49.1935 1.43391 38.5429 4.50688C35.8063 5.29683 33.0779 6.55124 30.5263 7.9867C30.3882 8.07552 30.2495 8.16503 30.1115 8.25589C27.7836 9.60794 25.6822 11 23.7487 12.4219C22.1166 13.6336 20.7014 14.7836 19.5888 15.7308C18.6897 16.5011 17.8254 17.2775 16.9882 18.0586C16.9392 18.1054 16.9141 18.1305 16.9141 18.1305C18.6544 21.0055 25.0708 23.2838 37.259 23.5645C37.259 23.5645 43.8883 12.8816 54.6163 9.2662Z" fill="#020206"/>
<path d="M57.0365 8.54004C56.3809 8.72787 55.8579 8.87094 55.0309 9.13335C49.7672 7.22121 44.1308 5.72948 38.1523 4.62424L40.3041 4.08179C45.831 4.97208 51.379 6.52145 57.0371 8.54004H57.0365Z" fill="#263762"/>
<path d="M32.8711 6.74927L31.1172 7.66058C34.3978 9.51915 40.8245 10.996 48.4351 12.287C48.8758 11.99 49.4029 11.6822 50.0122 11.3289C42.9776 9.97074 36.9535 8.48375 32.8711 6.74927Z" fill="#263762"/>
<path d="M17.8945 18.2011C20.1578 20.8408 26.932 22.2823 36.71 22.9258C36.71 22.9258 37.7763 20.242 30.1147 18.496C21.9464 16.6341 17.8945 18.2004 17.8945 18.2004V18.2011Z" fill="#263762"/>
<path d="M33.2539 11.1045L37.5186 12.2436L39.1379 10.7688L34.8731 9.62967L33.2539 11.1045Z" fill="#263762"/>
<path opacity="0.2" d="M4.30565 32.7305C4.00982 23.812 14.6835 21.4896 21.6569 21.3506C26.3752 16.3303 38.1506 1.87059 54.8939 3.51421L63.4831 2.37236L53.8989 1.3017L34.1396 4.08175L0.988281 27.3562L4.30565 32.7305Z" fill="white"/>
<path d="M79.8018 10.5308C79.8018 10.5308 73.2759 14.3856 53.9293 20.855C48.012 22.8336 36.9133 25.3919 31.5911 27.9855C26.2696 30.5791 21.9777 36.3969 19.3023 38.1178C16.6262 39.8387 7.26577 36.8613 5.61184 35.3933C3.53559 33.5503 3.08471 30.2855 3.08471 30.2855L2.96094 37.6953L25.1618 45.1723L85.1512 29.2508L79.8032 10.5308H79.8018Z" fill="#C4C9D2"/>
</g>
<path d="M39.0671 24.1544C49.8713 20.9126 60.7116 17.8064 70.4509 13.7861C71.3281 13.4241 72.7747 12.9664 73.0623 12.2869C73.2779 11.777 73.5404 10.8535 73.756 10.0371C73.756 10.0371 65.3408 6.74922 56.1239 9.80863C43.8146 13.8953 39.0664 24.1537 39.0664 24.1537L39.0671 24.1544Z" fill="#020206"/>
<path d="M67.5848 25.8048C66.6919 29.126 67.9452 32.3468 70.384 32.9984C72.822 33.65 75.5226 31.4856 76.4155 28.1638C77.3077 24.8426 76.055 21.6218 73.6163 20.9702C71.1783 20.3186 68.4777 22.483 67.5848 25.8048Z" fill="#263762"/>
<path d="M68.7032 26.1038C68.0367 28.5835 68.9725 30.9879 70.793 31.474C72.6135 31.9602 74.6293 30.3444 75.2957 27.8647C75.9622 25.385 75.0264 22.9806 73.2059 22.4945C71.3853 22.0083 69.3696 23.6241 68.7032 26.1038Z" fill="#E5E7EC"/>
<path d="M73.9785 26.7819L74.8122 28.0946C75.0407 28.4547 74.7198 29.0832 74.3233 29.052L72.8774 28.9381C72.7047 28.9246 72.5204 29.048 72.4096 29.25L71.4792 30.9479C71.2242 31.4131 70.7046 31.3446 70.6883 30.8435L70.6285 29.0147C70.6217 28.7964 70.5074 28.6344 70.3394 28.6025L68.9303 28.3394C68.5441 28.2675 68.5441 27.5956 68.9303 27.3169L70.3394 26.3011C70.5074 26.1798 70.6217 25.956 70.6285 25.7343L70.6883 23.8737C70.7046 23.3638 71.2242 23.0173 71.4792 23.3468L72.4096 24.547C72.5204 24.6901 72.7054 24.7145 72.8774 24.6087L74.3233 23.7225C74.7198 23.4797 75.0407 23.9367 74.8122 24.4188L73.9785 26.1771C73.8792 26.3866 73.8792 26.6253 73.9785 26.7819Z" fill="#263762"/>
<path d="M71.2774 26.7914C71.1319 27.3338 71.3359 27.86 71.7344 27.9658C72.1329 28.0722 72.5736 27.719 72.7192 27.1765C72.8647 26.6341 72.6607 26.1086 72.2622 26.0021C71.8643 25.8957 71.423 26.2489 71.2774 26.7914Z" fill="#E5E7EC"/>
<path d="M29.7254 35.9371C28.8325 39.2583 30.0859 42.4791 32.5246 43.1307C34.9626 43.7823 37.6632 41.6179 38.5561 38.2961C39.4484 34.975 38.1957 31.7542 35.757 31.1026C33.3189 30.4509 30.6184 32.6153 29.7254 35.9371Z" fill="#263762"/>
<path d="M30.8438 36.2361C30.1773 38.7158 31.1131 41.1202 32.9336 41.6064C34.7542 42.0925 36.7699 40.4767 37.4364 37.9971C38.1028 35.5174 37.167 33.113 35.3465 32.6268C33.526 32.1406 31.5102 33.7565 30.8438 36.2361Z" fill="#E5E7EC"/>
<path d="M36.1191 36.9142L36.9529 38.2269C37.1814 38.587 36.8604 39.2155 36.4639 39.1843L35.0181 39.0704C34.8453 39.0569 34.661 39.1803 34.5502 39.3823L33.6199 41.0802C33.3648 41.5453 32.8453 41.4769 32.8289 40.9758L32.7691 39.147C32.7623 38.9287 32.648 38.7666 32.4801 38.7348L31.071 38.4717C30.6847 38.3998 30.6847 37.7279 31.071 37.4499L32.4801 36.4334C32.648 36.3121 32.7623 36.0883 32.7691 35.8666L32.8289 34.006C32.8453 33.4961 33.3648 33.1496 33.6199 33.4784L34.5502 34.6786C34.661 34.8217 34.846 34.8461 35.0181 34.7403L36.4639 33.8541C36.8604 33.6113 37.1814 34.0684 36.9529 34.5505L36.1191 36.3087C36.0198 36.5182 36.0198 36.7569 36.1191 36.9135V36.9142Z" fill="#263762"/>
<path d="M33.418 36.9237C33.2725 37.4661 33.4765 37.9923 33.875 38.0981C34.2729 38.2045 34.7143 37.8513 34.8598 37.3088C35.0053 36.7664 34.8013 36.2402 34.4028 36.1337C34.0049 36.0273 33.5636 36.3806 33.418 36.923V36.9237Z" fill="#E5E7EC"/>
<path d="M55.3281 10.5654L56.2299 18.42L58.1756 17.784L57.0956 9.98901L55.3281 10.5654Z" fill="#263762"/>
<path d="M68.8146 13.9625L70.138 13.4255L68.7235 9.1991L67.4844 9.04654L68.8146 13.9625Z" fill="#263762"/>
<path d="M56.2422 9.79034C56.6067 12.6152 57.2188 18.5963 57.2188 18.5963C57.2188 18.5963 58.0927 19.6894 57.9192 21.331C57.6377 23.991 57.2773 28.7584 57.5221 30.5784" stroke="#020206" stroke-width="0.5" stroke-miterlimit="10"/>
<path d="M68.074 8.7916L69.5939 14.1347C70.3536 15.3071 70.2937 16.891 69.7796 18.0241L65.1749 27.0098C64.6866 28.0852 63.8392 28.8839 62.9286 29.1274L41.367 34.9166C40.57 30.4048 40.3347 25.436 39.0977 24.1239" stroke="#020206" stroke-width="0.5" stroke-miterlimit="10"/>
<path d="M37.2186 23.5516C37.2186 23.5516 37.1275 24.0832 36.3223 24.5213C35.4287 25.0074 27.6399 28.2581 25.6894 29.1673C23.2412 30.3092 19.9748 31.0327 17.8108 30.7818C14.4146 30.3879 9.45825 29.01 8.27357 28.4194C6.98008 27.7746 5.62267 26.3066 6.25309 25.6435" stroke="#020206" stroke-width="0.5" stroke-miterlimit="10"/>
<path d="M80.6736 15.0677C80.6736 15.0677 77.3522 16.628 76.9795 16.7907C76.6068 16.9534 76.3967 17.3779 76.2382 17.957C76.0804 18.536 75.5078 21.1879 75.5078 21.1879" stroke="#020206" stroke-width="0.5" stroke-miterlimit="10"/>
<path d="M27.4258 28.395C27.4258 28.395 29.164 29.0365 29.619 29.3742C30.178 29.7885 31.0335 30.6177 31.1151 31.5562" stroke="#020206" stroke-width="0.5" stroke-miterlimit="10"/>
<path d="M17.1041 36.4518C17.5496 36.4036 16.4934 34.8285 16.3425 34.5457C15.0599 32.1447 12.3416 31.7955 9.61115 31.0598C7.1629 30.4001 6.72562 31.3304 6.40395 31.7982C6.28018 31.9786 5.80957 32.898 6.102 33.1232C6.78071 33.6466 8.34486 34.3254 10.6081 34.9756C13.0577 35.6801 16.5873 36.506 17.1041 36.4504V36.4518Z" fill="#CBCFD7"/>
<path d="M12.7249 28.5639C12.5583 28.9124 12.1917 29.0853 11.9061 28.9497C11.6205 28.8141 11.5246 28.4215 11.6912 28.0723C11.8578 27.7237 12.2244 27.5508 12.51 27.6864C12.7956 27.8221 12.8915 28.2147 12.7249 28.5639Z" fill="#667290"/>
<path d="M80.1337 12.287C80.1337 12.287 79.1986 12.9691 78.7559 13.3773C78.1595 13.9279 78.0418 15.0677 77.6719 16.4835L80.6989 15.122L80.1337 12.287Z" fill="#667290"/>
<path d="M27.4298 28.3794C25.2216 28.2079 20.8454 28.0228 17.7763 28.8635C17.2315 29.0127 16.444 30.1485 16.2305 30.5912C16.2305 30.5912 19.7396 31.3581 21.7424 30.8998C24.392 30.2929 27.4291 28.3801 27.4291 28.3801L27.4298 28.3794Z" fill="#667290"/>
<path d="M54.0888 21.9432L57.009 20.8746L56.9002 21.573L53.9297 22.681L54.0888 21.9432Z" fill="#667290"/>
<path d="M66.593 17.2931L69.4793 16.1364L69.3915 16.8375L66.457 18.0349L66.593 17.2931Z" fill="#667290"/>
<path opacity="0.2" d="M39.9186 23.5645C54.5258 13.7747 61.706 11.7608 73.2787 10.2881C73.2787 10.2881 65.3743 7.14796 56.3124 10.206C44.4404 14.2127 39.918 23.5645 39.918 23.5645H39.9186Z" fill="white"/>
<path d="M40.7506 24.3042C40.7506 24.3042 40.4887 24.372 41.1477 24.8175C41.8665 25.303 44.4318 26.1316 45.0914 25.8692C46.0163 25.501 46.3149 23.4872 45.8409 23.3292C44.6535 22.9332 44.2352 22.5521 43.8374 22.5752C43.4395 22.5982 40.7506 24.3036 40.7506 24.3036V24.3042Z" fill="#BEC3CD"/>
<path d="M39.7031 23.9828C39.7031 23.9828 41.7066 21.8734 42.6458 21.8551C43.3768 21.8408 45.0818 21.9093 45.4769 22.8735C45.872 23.8377 44.6792 24.3571 43.164 24.6677C41.6481 24.9776 40.6131 24.7416 40.2451 24.5443C39.8772 24.347 39.7031 23.9828 39.7031 23.9828Z" fill="#EBEDF0"/>
<mask id="mask1_4748_7583" style="mask-type:luminance" maskUnits="userSpaceOnUse" x="39" y="21" width="7" height="4">
<path d="M39.7031 23.9828C39.7031 23.9828 41.7066 21.8733 42.6458 21.855C43.3768 21.8408 45.0818 21.9093 45.4769 22.8735C45.872 23.8377 44.6792 24.3571 43.164 24.6676C41.6481 24.9775 40.6131 24.7415 40.2451 24.5442C39.8772 24.3469 39.7031 23.9828 39.7031 23.9828Z" fill="white"/>
</mask>
<g mask="url(#mask1_4748_7583)">
<path d="M44.5993 21.9351C44.5993 21.9351 44.7299 22.9813 43.0338 23.3868C42.1524 23.5977 39.3594 24.0249 39.3594 24.0249L40.0388 25.2542L45.6527 25.3607L46.3804 22.9515L45.3535 21.5689L44.5993 21.9351Z" fill="#C4C9D2"/>
</g>
<path d="M8.34766 35.3045L13.5665 36.6986V34.5084L8.34766 33.1143V35.3045Z" fill="#020206"/>
<path d="M8.01953 35.377L13.2391 36.7711V34.581L8.01953 33.1869V35.377Z" fill="white"/>
<path d="M8.21773 28.4506C8.21773 28.4506 8.32042 26.8355 8.14564 26.5805C7.72128 25.9601 7.63899 25.6787 7.70224 25.0332C7.78861 24.153 7.90218 23.5645 7.90218 23.5645C7.90218 23.5645 5.50902 25.3925 5.62939 26.647C5.711 27.4993 8.21773 28.4499 8.21773 28.4499V28.4506Z" fill="#667290"/>
</svg>
