<svg width="96" height="48" viewBox="0 0 96 48" fill="none" xmlns="http://www.w3.org/2000/svg">
<path d="M52.7786 28.7407C50.4934 28.1222 46.7537 28.1222 44.4685 28.7407L7.57492 37.8889C1.46385 39.038 19.8051 45.2941 26.7497 43.8246C28.0523 43.5491 29.6486 43.1958 32.7731 42.3838C38.9857 40.7692 50.958 37.3795 54.7847 36.1057C60.0198 34.3636 62.5307 33.6131 63.2635 33.1118C63.9962 32.6105 64.2731 31.8541 61.9879 31.2355L52.7778 28.7415L52.7786 28.7407Z" fill="#576485"/>
<path d="M50.9521 27.354C50.1558 30.3575 51.2735 33.2693 53.4491 33.8586C55.6247 34.4478 58.034 32.4902 58.8303 29.4875C59.6267 26.4841 58.5089 23.5723 56.3333 22.983C54.1577 22.3937 51.7491 24.3513 50.9528 27.354H50.9521Z" fill="#020206"/>
<path d="M53.4492 33.8586L56.6607 34.7278L59.5442 23.8523L56.3334 22.9823L53.4492 33.8586Z" fill="#020206"/>
<path d="M21.5068 35.1251C20.7105 38.1285 21.8282 41.0403 24.0038 41.6296C26.1794 42.2188 28.5887 40.2612 29.385 37.2585C30.1813 34.2551 29.0636 31.3433 26.888 30.754C24.7124 30.1648 22.3038 32.1223 21.5075 35.1251H21.5068Z" fill="#020206"/>
<path d="M24.0039 41.6296L27.2147 42.4995L30.0982 31.6233L26.8874 30.754L24.0039 41.6296Z" fill="#020206"/>
<path d="M62.4156 28.7693L60.0259 27.8876L36.6636 33.465L32.9685 38.1813L24.9492 36.8642L25.7397 29.9852L61.216 21.5993L62.7107 26.2679L62.4156 28.7693Z" fill="#020206"/>
<path d="M14.1827 15.9779L11.8004 18.5123C11.8004 18.5123 11.6514 16.7248 12.1847 16.1641C12.989 15.3176 14.1827 15.9787 14.1827 15.9787V15.9779Z" fill="#EBEDF0"/>
<path d="M59.3768 13.3138C57.6666 10.7787 54.2169 7.02476 54.2169 7.02476C50.2405 5.72165 46.8259 4.79673 42.9394 4.13418C39.4758 3.54419 28.5051 4.30861 21.8987 7.72908C19.5259 8.95743 15.1499 13.9397 11.5877 18.4822C8.05477 20.4941 7.19272 21.7591 6.64918 24.1755C3.19952 25.6537 3.23166 35.051 6.09031 36.4025C9.36903 37.9526 17.0712 40.0553 21.063 40.3961C22.7761 40.3433 23.0895 40.207 23.0895 40.207L23.7017 40.0443C23.6133 38.6444 23.6718 37.2622 23.9691 35.7531C24.6544 32.277 27.5349 29.9478 29.9129 30.3421C32.1783 30.7174 33.7183 33.4643 32.9666 38.4128L36.39 36.7902C42.0379 34.878 43.7751 34.0433 50.5028 32.6361L53.0078 32.2894C53.0078 30.7452 53.1145 29.3849 53.5324 27.6831C54.3754 24.2502 57.218 22.1409 59.5302 22.7668C61.7094 23.3568 62.7863 25.823 62.413 28.7678C63.709 26.8593 62.7176 22.4004 62.5065 21.5986C62.12 20.1335 61.502 19.3273 60.7035 18.4808C60.4434 16.4067 60.1461 14.4542 59.3753 13.3123L59.3768 13.3138Z" fill="#EBEDF0"/>
<mask id="mask0_4748_5492" style="mask-type:luminance" maskUnits="userSpaceOnUse" x="4" y="3" width="60" height="38">
<path d="M59.3768 13.3138C57.6666 10.7787 54.2169 7.02476 54.2169 7.02476C50.2405 5.72165 46.8259 4.79673 42.9394 4.13418C39.4758 3.54419 28.5051 4.30861 21.8987 7.72908C19.5259 8.95743 15.1499 13.9397 11.5877 18.4822C8.05477 20.4941 7.19272 21.7591 6.64918 24.1755C3.19952 25.6537 3.23166 35.051 6.09031 36.4025C9.36903 37.9526 17.0712 40.0553 21.063 40.3961C22.7761 40.3433 23.0895 40.207 23.0895 40.207L23.7017 40.0443C23.6133 38.6444 23.6718 37.2622 23.9691 35.7531C24.6544 32.277 27.5349 29.9478 29.9129 30.3421C32.1783 30.7174 33.7183 33.4643 32.9666 38.4128L36.39 36.7902C42.0379 34.878 43.7751 34.0433 50.5028 32.6361L53.0078 32.2894C53.0078 30.7452 53.1145 29.3849 53.5324 27.6831C54.3754 24.2502 57.218 22.1409 59.5302 22.7668C61.7094 23.3568 62.7863 25.823 62.413 28.7678C63.709 26.8593 62.7176 22.4004 62.5065 21.5986C62.12 20.1335 61.502 19.3273 60.7035 18.4808C60.4434 16.4067 60.1461 14.4542 59.3753 13.3123L59.3768 13.3138Z" fill="white"/>
</mask>
<g mask="url(#mask0_4748_5492)">
<path d="M36.0736 11.5403C30.4308 10.5332 24.5973 9.05937 20.4061 7.45651C20.4061 7.45651 13.0933 15.1813 11.5898 18.4823C13.1912 20.81 18.8391 22.4876 28.0886 22.4876C31.9715 16.3378 36.01 11.6289 36.0728 11.5403H36.0736Z" fill="#020206"/>
<path d="M12.3438 18.2712C14.2951 20.4567 19.6171 21.3347 27.9009 22.009C27.9009 22.009 28.7987 20.4186 22.3085 18.5893C15.388 16.639 12.3438 18.2712 12.3438 18.2712Z" fill="#263762"/>
<path d="M23.5781 11.1488L26.8934 12.04L27.9921 10.8432L24.6769 9.952L23.5781 11.1488Z" fill="#263762"/>
<path d="M1.30469 35.0481C1.30469 35.0481 2.3618 30.7079 2.19669 32.0095C1.59691 36.7316 18.816 38.9941 21.7419 39.1971C23.4083 39.3129 21.2064 35.1368 23.2563 30.754C24.2126 28.71 29.2118 25.4309 33.0822 24.4415C54.2588 19.0261 58.0459 14.6822 59.4902 13.4934C60.2822 12.8419 67.7922 12.2966 67.7922 12.2966L73.8514 30.7401L18.1768 44.3128L1.64805 38.1813L1.30469 35.0481Z" fill="#C4C9D2"/>
<path opacity="0.2" d="M16.215 21.1501C17.6878 16.7724 22.5197 10.1719 24.6565 8.88051C27.5685 7.12081 39.1346 4.27934 47.1751 4.73008L49.7035 4.30939L39.882 1.75668L20.4222 6.12333L3.01172 22.2861C3.01172 22.2861 10.0776 19.1309 16.215 21.1493V21.1501Z" fill="white"/>
</g>
<path d="M59.2922 17.9531C60.3508 18.4976 60.7066 18.4823 60.7066 18.4823C60.6401 16.1172 60.0396 14.1677 59.4909 13.4926C59.4909 13.4926 58.409 17.4987 59.2922 17.9531Z" fill="#667290"/>
<path d="M30.5898 22.9303C40.0666 20.5652 52.5919 16.7966 54.4731 14.8654C54.9282 14.3985 51.5114 8.87977 49.9809 8.63792C46.9652 8.1608 41.4758 9.98866 38.4864 11.6765C35.7753 13.2068 32.6778 18.7776 30.5898 22.931V22.9303Z" fill="#020206"/>
<path d="M6.11493 28.1368C5.56848 28.0599 5.75039 29.4055 5.81979 30.2461C5.94252 31.728 6.95799 32.7013 11.8184 33.8894C16.5078 35.0349 18.207 34.9953 18.9537 33.7531C19.0932 33.5207 19.6791 31.8035 19.2598 31.6254C18.0091 31.0933 15.2381 30.2981 11.7658 29.4055C8.72447 28.6235 7.45184 28.3252 6.11493 28.1368Z" fill="#CBCFD7"/>
<path opacity="0.2" d="M49.4824 9.35907C48.803 9.28358 41.1015 10.2855 38.031 13.1592C35.6158 15.4195 32.6797 21.3384 32.6797 21.3384C39.3409 16.0563 45.9509 13.4926 52.1854 12.3933C52.1854 12.3933 50.1618 9.43456 49.4824 9.35833V9.35907Z" fill="white"/>
<path d="M9.21875 32.2997L14.028 33.5926V31.5617L9.21875 30.2689V32.2997Z" fill="#020206"/>
<path d="M8.91797 32.3672L13.7272 33.66V31.6291L8.91797 30.3363V32.3672Z" fill="white"/>
<path d="M32.1484 22.5704C33.8864 23.716 34.3321 35.235 35.0224 35.0481C35.7128 34.8612 47.7187 31.4276 49.1973 30.6258C51.1976 29.5411 54.0058 21.1501 54.5121 16.5467" stroke="#020206" stroke-width="0.5" stroke-miterlimit="10"/>
<path d="M51.0032 16.7226L47.6719 9.5416" stroke="#020206" stroke-width="0.5" stroke-miterlimit="10"/>
<path d="M35.3466 21.5993L34.4531 17.9436" stroke="#020206" stroke-width="0.5" stroke-miterlimit="10"/>
<path d="M28.0567 22.4957C28.0567 22.4957 27.427 23.3319 26.7081 23.7277C25.9104 24.1674 24.6523 24.6673 24.6523 24.6673" stroke="#020206" stroke-width="0.5" stroke-miterlimit="10"/>
<path d="M60.7054 18.4823C61.2935 20.456 60.4453 23.1611 60.4453 23.1611" stroke="#020206" stroke-width="0.5" stroke-miterlimit="10"/>
<path d="M21.0508 27.9221C21.0508 27.9221 25.0316 28.8551 25.8753 32.0103" stroke="#020206" stroke-width="0.5" stroke-miterlimit="10"/>
<path d="M36.0703 11.5402C38.5557 9.67571 46.2666 6.94051 54.2165 7.02479" stroke="#020206" stroke-width="0.5" stroke-miterlimit="10"/>
<path d="M7.49609 24.9743C9.89669 26.1653 13.4947 27.1863 18.6852 27.9822" stroke="#020206" stroke-width="0.5" stroke-miterlimit="10"/>
<path d="M51.0039 16.7226C51.0039 16.7226 51.8528 17.6409 52.3379 17.5354C53.0626 17.3778 54.512 16.5467 54.512 16.5467C54.5157 15.9875 54.5157 15.4693 54.4748 14.8654L51.0039 16.7226Z" fill="#667290"/>
<path d="M13.0204 25.7673C12.8757 26.0722 12.5572 26.2232 12.3088 26.1045C12.0604 25.9857 11.9771 25.6427 12.1218 25.3379C12.2664 25.033 12.585 24.882 12.8333 25.0007C13.0817 25.1195 13.165 25.4625 13.0204 25.7673Z" fill="#667290"/>
<path d="M17.281 27.8715C20.1528 28.5788 21.9192 27.7301 23.6558 26.8828C26.1089 25.6853 25.0453 23.7973 22.3948 24.5075C20.6729 24.9685 16.0463 27.5681 17.281 27.8723V27.8715Z" fill="#667290"/>
<path d="M7.90188 25.4515C7.22978 25.0733 6.37065 24.7977 6.58397 23.532C6.75053 22.5433 7.73093 21.2292 8.26716 20.7492C8.7559 20.3124 8.68869 21.9028 8.71718 22.6349C8.78512 24.366 8.75444 25.9308 7.90188 25.4507V25.4515Z" fill="#667290"/>
<path d="M33.082 22.0251C33.082 22.0251 33.1376 21.8859 33.7256 22.2882C34.3671 22.7272 36.691 23.211 37.2798 22.9735C38.1053 22.6408 38.1681 21.7649 37.862 21.4373C36.9145 20.4223 36.1905 20.4406 35.8355 20.4618C35.4804 20.4824 33.082 22.0251 33.082 22.0251Z" fill="#BEC3CD"/>
<path d="M32.1484 21.7349C32.1484 21.7349 33.9361 19.8271 34.774 19.811C35.4257 19.7985 36.9474 19.8601 37.2996 20.7315C37.6517 21.6037 36.588 22.0735 35.2358 22.3534C33.8835 22.6334 32.9593 22.4201 32.6321 22.242C32.304 22.0632 32.1484 21.7341 32.1484 21.7341V21.7349Z" fill="#EBEDF0"/>
<mask id="mask1_4748_5492" style="mask-type:luminance" maskUnits="userSpaceOnUse" x="32" y="19" width="6" height="4">
<path d="M32.1484 21.7348C32.1484 21.7348 33.9361 19.8271 34.774 19.811C35.4257 19.7985 36.9474 19.8601 37.2996 20.7315C37.6517 21.6036 36.588 22.0734 35.2358 22.3534C33.8835 22.6334 32.9593 22.4201 32.6321 22.242C32.304 22.0632 32.1484 21.7341 32.1484 21.7341V21.7348Z" fill="white"/>
</mask>
<g mask="url(#mask1_4748_5492)">
<path d="M36.5154 19.8835C36.5154 19.8835 36.6323 20.8297 35.1186 21.1969C34.3318 21.3874 31.8398 21.7737 31.8398 21.7737L32.4462 22.8855L37.4549 22.9815L38.1036 20.8026L37.1875 19.5522L36.5146 19.8835H36.5154Z" fill="#C4C9D2"/>
</g>
<path d="M54.0316 28.2255C53.2309 31.2465 54.3552 34.1759 56.5432 34.7681C58.7312 35.3603 61.1544 33.3917 61.9559 30.3714C62.7565 27.3504 61.6322 24.421 59.4442 23.8288C57.2562 23.2366 54.833 25.2052 54.0316 28.2255Z" fill="#263762"/>
<path d="M55.0367 28.4974C54.4383 30.7526 55.2785 32.9396 56.912 33.3822C58.5455 33.8249 60.3551 32.3547 60.9527 30.0996C61.551 27.8444 60.7109 25.6574 59.0773 25.2148C57.4438 24.7721 55.6342 26.2423 55.0367 28.4974Z" fill="#020206"/>
<path d="M57.3469 29.1233C57.2161 29.6165 57.3995 30.0951 57.7567 30.1918C58.114 30.2886 58.5099 29.9668 58.6407 29.4736C58.7715 28.9804 58.5881 28.5018 58.2308 28.405C57.8736 28.3083 57.4776 28.63 57.3469 29.1233Z" fill="#263762"/>
<path d="M58.9324 27.2498C59.2081 26.533 59.0102 25.7889 58.4904 25.5876C57.9705 25.3864 57.3256 25.8043 57.0499 26.521C56.7743 27.2378 56.9722 27.982 57.492 28.1832C58.0119 28.3844 58.6568 27.9665 58.9324 27.2498Z" fill="#020206"/>
<path d="M58.9364 32.0759C59.212 31.3592 59.0141 30.615 58.4943 30.4138C57.9744 30.2125 57.3295 30.6304 57.0539 31.3472C56.7782 32.0639 56.9761 32.8081 57.4959 33.0093C58.0158 33.2106 58.6607 32.7927 58.9364 32.0759Z" fill="#020206"/>
<path d="M56.9832 30.1866C57.2589 29.4699 57.061 28.7257 56.5411 28.5245C56.0213 28.3232 55.3764 28.7412 55.1007 29.4579C54.825 30.1746 55.023 30.9188 55.5428 31.1201C56.0627 31.3213 56.7075 30.9034 56.9832 30.1866Z" fill="#020206"/>
<path d="M60.8856 29.1376C61.1613 28.4209 60.9633 27.6767 60.4435 27.4755C59.9237 27.2742 59.2788 27.6921 59.0031 28.4089C58.7274 29.1256 58.9253 29.8698 59.4452 30.071C59.965 30.2723 60.6099 29.8544 60.8856 29.1376Z" fill="#020206"/>
<path d="M24.637 35.9327C23.8363 38.9537 24.9607 41.8832 27.1487 42.4753C29.3367 43.0675 31.7599 41.099 32.5613 38.0787C33.362 35.0576 32.2377 32.1282 30.0497 31.536C27.8617 30.9438 25.4384 32.9124 24.637 35.9327Z" fill="#263762"/>
<path d="M25.6421 36.2047C25.0438 38.4598 25.8839 40.6468 27.5174 41.0895C29.151 41.5321 30.9605 40.0619 31.5581 37.8068C32.1565 35.5516 31.3163 33.3647 29.6828 32.922C28.0493 32.4793 26.2397 33.9495 25.6421 36.2047Z" fill="#020206"/>
<path d="M27.9523 36.8305C27.8216 37.3237 28.0049 37.8023 28.3622 37.8991C28.7194 37.9958 29.1154 37.6741 29.2462 37.1808C29.3769 36.6876 29.1936 36.209 28.8363 36.1123C28.4791 36.0155 28.0831 36.3373 27.9523 36.8305Z" fill="#263762"/>
<path d="M29.5379 34.9573C29.8136 34.2405 29.6157 33.4964 29.0958 33.2951C28.576 33.0939 27.9311 33.5118 27.6554 34.2286C27.3797 34.9453 27.5777 35.6895 28.0975 35.8907C28.6173 36.0919 29.2622 35.674 29.5379 34.9573Z" fill="#020206"/>
<path d="M29.5379 39.7831C29.8136 39.0664 29.6157 38.3222 29.0958 38.121C28.576 37.9197 27.9311 38.3376 27.6554 39.0544C27.3797 39.7711 27.5777 40.5153 28.0975 40.7165C28.6173 40.9178 29.2622 40.4999 29.5379 39.7831Z" fill="#020206"/>
<path d="M26.6472 36.2134C27.2353 36.0551 27.7123 36.5168 27.7123 37.2439C27.7123 37.9709 27.2353 38.6892 26.6472 38.8475C26.0591 39.0058 25.582 38.5441 25.582 37.817C25.582 37.09 26.0591 36.3717 26.6472 36.2134Z" fill="#020206"/>
<path d="M31.491 36.8455C31.7667 36.1288 31.5688 35.3846 31.049 35.1834C30.5291 34.9822 29.8842 35.4001 29.6085 36.1168C29.3329 36.8336 29.5308 37.5777 30.0506 37.779C30.5705 37.9802 31.2154 37.5623 31.491 36.8455Z" fill="#020206"/>
</svg>
