<svg width="74" height="42" viewBox="0 0 74 42" fill="none" xmlns="http://www.w3.org/2000/svg">
<path d="M61.1074 23.6782C58.5357 22.9838 54.3268 22.9838 51.7551 23.6782L4.87329 35.0921C-2.004 36.3814 18.6376 43.3996 26.4531 41.7504C27.9193 41.4415 29.7155 41.0447 33.2322 40.1335C40.2242 38.3223 59.0584 33.3679 63.3655 31.9392C69.2574 29.9848 72.0833 29.1426 72.9075 28.5808C73.7325 28.0191 74.0445 27.1701 71.472 26.4757L61.1066 23.6782H61.1074Z" fill="#576485"/>
<path d="M56.5614 22.3521C55.6682 25.7098 56.9222 28.9654 59.3619 29.6231C61.8015 30.2816 64.5037 28.0939 65.3962 24.7363C66.2894 21.3786 65.0354 18.1237 62.5958 17.4653C60.1561 16.8068 57.4547 18.9945 56.5614 22.3521Z" fill="#020206"/>
<path d="M59.3633 29.6239L62.9647 30.5958L66.1986 18.4379L62.5979 17.466L59.3633 29.6239Z" fill="#020206"/>
<path d="M20.1669 32.1216C19.2737 35.4793 20.5276 38.7342 22.9673 39.3927C25.407 40.0512 28.1092 37.8635 29.0016 34.5058C29.8949 31.1482 28.6409 27.8933 26.2012 27.2348C23.7616 26.5763 21.0601 28.764 20.1669 32.1216Z" fill="#020206"/>
<path d="M22.9688 39.3927L26.5701 40.3647L29.804 28.2068L26.2034 27.2349L22.9688 39.3927Z" fill="#020206"/>
<path d="M69.416 24.1792L63.3652 24.0307L37.1647 30.2652L33.0203 35.5376L24.0273 34.0654L24.9131 26.3751L66.7686 14.752L70.4382 20.616L69.416 24.1792Z" fill="#020206"/>
<path d="M13.878 12.7519L10.8398 15.5148C10.8398 15.5148 11.0386 13.5866 11.6371 12.9589C12.5393 12.0124 13.878 12.7511 13.878 12.7511V12.7519Z" fill="#EBEDF0"/>
<path d="M68.8614 10.1225C66.9429 7.28829 63.9558 4.24863 63.9558 4.24863C60.0521 2.98042 52.2201 0.565488 46.1101 0.087752C39.9805 -0.391484 34.5184 1.17522 28.8223 2.76967C19.4109 5.40359 10.8386 15.5148 10.8386 15.5148C10.8386 15.5148 6.0185 17.962 2.86635 20.5119C-0.510799 23.2448 -0.600797 30.3081 1.0334 32.9248C2.8911 35.8992 16.2114 38.0411 19.6696 38.0134C21.591 37.9541 21.9428 37.8019 21.9428 37.8019L22.629 37.6204C22.53 36.0559 22.596 34.5102 22.929 32.8235C23.6977 28.9371 26.9279 26.3332 29.5948 26.7742C32.1357 27.1942 33.8622 30.2646 33.0199 35.7964L36.8591 33.983C43.1926 31.8455 48.5122 30.0756 56.0578 28.5029L58.8672 28.1152C58.8672 26.3887 58.9872 24.8685 59.4552 22.9666C60.4001 19.1289 63.5883 16.771 66.1817 17.4707C68.6259 18.1307 69.8333 20.8869 69.4148 24.1785C70.5106 23.6108 70.1318 23.9385 70.4723 22.9336C71.0843 21.1291 71.478 18.7584 71.388 17.8352C71.3438 17.383 71.3895 16.4995 70.7798 16.2153C69.9983 13.2881 69.7253 11.3967 68.8614 10.1202V10.1225Z" fill="#EBEDF0"/>
<mask id="mask0_4748_5133" style="mask-type:luminance" maskUnits="userSpaceOnUse" x="0" y="0" width="72" height="39">
<path d="M68.8614 10.1225C66.9429 7.28829 63.9558 4.24863 63.9558 4.24863C60.0521 2.98042 52.2201 0.565488 46.1101 0.087752C39.9805 -0.391484 34.5184 1.17522 28.8223 2.76967C19.4109 5.40359 10.8386 15.5148 10.8386 15.5148C10.8386 15.5148 6.0185 17.962 2.86635 20.5119C-0.510799 23.2448 -0.600797 30.3081 1.0334 32.9248C2.8911 35.8992 16.2114 38.0411 19.6696 38.0134C21.591 37.9541 21.9428 37.8019 21.9428 37.8019L22.629 37.6204C22.53 36.0559 22.596 34.5102 22.929 32.8235C23.6977 28.9371 26.9279 26.3332 29.5948 26.7742C32.1357 27.1942 33.8622 30.2646 33.0199 35.7964L36.8591 33.983C43.1926 31.8455 48.5122 30.0756 56.0578 28.5029L58.8672 28.1152C58.8672 26.3887 58.9872 24.8685 59.4552 22.9666C60.4001 19.1289 63.5883 16.771 66.1817 17.4707C68.6259 18.1307 69.8333 20.8869 69.4148 24.1785C70.5106 23.6108 70.1318 23.9385 70.4723 22.9336C71.0843 21.1291 71.478 18.7584 71.388 17.8352C71.3438 17.383 71.3895 16.4995 70.7798 16.2153C69.9983 13.2881 69.7253 11.3967 68.8614 10.1202V10.1225Z" fill="white"/>
</mask>
<g mask="url(#mask0_4748_5133)">
<path d="M41.1845 8.83772C32.6828 7.9985 27.0774 6.43105 24.4645 4.37311C19.0099 7.37602 14.8573 11.0112 10.8359 15.5148C10.8359 17.7737 19.0594 20.4459 30.3369 20.7061C34.4122 14.2938 37.7871 11.0704 41.1845 8.83697V8.83772Z" fill="#020206"/>
<path d="M11.9727 15.4315C14.2091 18.0474 20.5786 19.2144 30.2399 19.8519C30.2399 19.8519 32.0391 17.3807 24.4695 15.6497C16.399 13.8048 11.9727 15.4307 11.9727 15.4307V15.4315Z" fill="#263762"/>
<path d="M24.9883 8.72442L28.9347 9.78189L30.4324 8.41318L26.4867 7.35571L24.9883 8.72442Z" fill="#263762"/>
<path opacity="0.2" d="M-1.75872 29.8265C-2.05497 20.8118 8.62471 18.4636 15.6018 18.3233C20.3221 13.2482 34.4967 -0.838581 51.2497 0.822618L57.4512 -0.861081L47.8613 -1.9433L28.0911 0.866867L-5.07812 24.3937L-1.75872 29.8265Z" fill="white"/>
<path d="M-2.49219 32.0352C-2.49219 32.0352 -1.30647 27.1828 -1.49172 28.6385C-2.1637 33.9176 14.1191 36.4308 17.4002 36.6573C19.2692 36.7863 19.7559 33.7106 20.2966 31.5214C20.6956 29.9052 20.5636 27.7461 25.2937 24.8819C26.2859 24.2812 27.7739 23.5852 32.1043 22.44C56.5093 15.9872 67.144 10.4966 68.0979 9.8576C69.0519 9.21862 72.0728 6.6012 72.0728 6.6012L78.8684 27.2188L16.4297 42.3916L-2.10745 35.5376L-2.49219 32.0352Z" fill="#C4C9D2"/>
</g>
<path d="M69.4529 17.0011L70.7781 16.2167C70.5186 13.5738 69.6667 11.9223 69.6667 11.9223C69.6667 11.9223 68.9032 14.4535 69.4529 17.0004V17.0011Z" fill="#667290"/>
<path d="M49.5887 18.2911L52.5368 17.2877L52.4093 17.9896L49.4102 19.0321L49.5887 18.2911Z" fill="#667290"/>
<path d="M31.9375 21.1748C42.7477 17.8982 51.9589 15.6265 61.7034 11.5624C61.9583 11.4559 63.1088 10.9226 63.2866 10.8064C63.8978 10.4074 60.7854 5.76353 59.8067 5.66604C57.634 5.44929 52.8656 5.18605 48.8262 6.50976C37.1408 10.3391 31.9375 21.1748 31.9375 21.1748Z" fill="#020206"/>
<path d="M51.2539 6.82017L52.0106 14.7864L53.9576 14.1437L53.0216 6.49768L51.2539 6.82017Z" fill="#263762"/>
<path opacity="0.2" d="M33.2773 20.3296C49.4776 8.312 61.937 9.40321 61.937 9.40321C61.232 8.2775 60.0568 6.5908 59.2521 6.46405C58.4473 6.33731 53.136 5.99607 49.7034 7.12703C38.9239 10.6774 33.2773 20.3296 33.2773 20.3296Z" fill="white"/>
<path d="M33.4539 21.324C33.4539 21.324 33.5161 21.168 34.1761 21.6187C34.8953 22.11 37.5015 22.6507 38.1622 22.3852C39.0877 22.0132 39.1582 21.0345 38.8147 20.6677C37.752 19.533 36.9398 19.5533 36.5415 19.5765C36.1433 19.5998 33.4531 21.324 33.4531 21.324H33.4539Z" fill="#BEC3CD"/>
<path d="M32.4062 20.9992C32.4062 20.9992 34.4109 18.867 35.3507 18.849C36.0819 18.8348 37.7881 18.9037 38.1833 19.8787C38.5786 20.8537 37.3854 21.3787 35.8689 21.6922C34.3524 22.0057 33.316 21.7672 32.9485 21.5677C32.581 21.3682 32.4062 20.9999 32.4062 20.9999V20.9992Z" fill="#EBEDF0"/>
<mask id="mask1_4748_5133" style="mask-type:luminance" maskUnits="userSpaceOnUse" x="32" y="18" width="7" height="4">
<path d="M32.4102 20.9987C32.4102 20.9987 34.4148 18.8665 35.3546 18.8485C36.0858 18.8343 37.792 18.9033 38.1872 19.8783C38.5825 20.8532 37.3893 21.3782 35.8728 21.6917C34.3563 22.0052 33.3199 21.7667 32.9524 21.5672C32.5849 21.3677 32.4102 20.9995 32.4102 20.9995V20.9987Z" fill="white"/>
</mask>
<g mask="url(#mask1_4748_5133)">
<path d="M37.3056 18.9297C37.3056 18.9297 37.4368 19.9879 35.7389 20.3974C34.8569 20.6104 32.0625 21.0424 32.0625 21.0424L32.7427 22.2851L38.3601 22.3923L39.0875 19.9572L38.0601 18.5592L37.3056 18.9289V18.9297Z" fill="#C4C9D2"/>
</g>
<path d="M31.9336 21.1749C33.1711 22.5009 34.5473 32.2446 35.322 32.0353C36.096 31.8269 49.8813 27.852 51.6633 27.2347C53.4444 26.6175 53.4872 20.5427 53.5307 17.3493C53.5532 15.6806 53.0575 14.9239 53.0575 14.9239C53.0575 14.9239 52.4447 8.93004 52.0802 6.07413" stroke="#020206" stroke-width="0.5" stroke-miterlimit="10"/>
<path d="M30.3531 20.6161C30.3531 20.6161 29.6466 21.5506 28.8411 21.993C27.9472 22.4843 19.8789 26.2349 19.8789 26.2349" stroke="#020206" stroke-width="0.5" stroke-miterlimit="10"/>
<path d="M70.7787 16.2167L67.4961 18.1592" stroke="#020206" stroke-width="0.5" stroke-miterlimit="10"/>
<path d="M19.8789 26.235C19.8789 26.235 24.3405 26.2808 25.0665 28.6387" stroke="#020206" stroke-width="0.5" stroke-miterlimit="10"/>
<path d="M40.9805 8.87898C44.7101 6.55705 51.0917 3.53914 63.7978 4.24337" stroke="#020206" stroke-width="0.5" stroke-miterlimit="10"/>
<path d="M13.6479 34.3534C14.1181 34.3024 13.0036 32.6352 12.8439 32.3359C11.4902 29.7943 8.62152 29.4253 5.74011 28.6461C3.15644 27.9478 2.69445 28.9325 2.35546 29.4283C2.22496 29.6195 1.72848 30.5922 2.03672 30.8307C2.75295 31.385 4.40365 32.1027 6.79233 32.7919C9.3775 33.5374 13.1026 34.4119 13.6479 34.3534Z" fill="#CBCFD7"/>
<path d="M16.1333 26.0032C10.8519 24.9082 6.90329 23.8965 3.4414 22.6515L3.16016 25.0297C4.64586 25.7947 10.0135 27.4461 14.6798 28.1114L16.1333 26.0039V26.0032Z" fill="#CBCFD7"/>
<path d="M8.93479 25.6208C8.77205 25.9613 8.41506 26.1308 8.13681 25.998C7.85857 25.8653 7.76483 25.482 7.92757 25.1408C8.08957 24.8003 8.44731 24.6308 8.72555 24.7635C9.00379 24.8963 9.09754 25.2795 8.93479 25.6208Z" fill="#667290"/>
<path d="M13.8766 28.0716C13.8766 28.0716 17.3048 29.0256 19.3402 27.2346C21.3756 25.4437 19.4579 24.6194 16.8135 25.0387C14.2441 25.4467 12.2897 27.8316 13.8766 28.0708V28.0716Z" fill="#667290"/>
<path d="M3.0909 24.9937C3.0909 24.9937 0.702969 24.6375 0.902463 23.457C1.05846 22.5353 1.83019 21.4546 2.33192 21.0076C2.78866 20.6004 3.1389 21.2221 3.58963 21.7793C4.5241 22.935 4.5271 25.209 3.0909 24.9937Z" fill="#667290"/>
<path d="M4.88281 31.6979L9.96766 33.0606V30.9202L4.88281 29.5582V31.6979Z" fill="#020206"/>
<path d="M4.5625 31.7692L9.6481 33.1319V30.9914L4.5625 29.6287V31.7692Z" fill="white"/>
<path d="M60.0123 23.2905C59.1139 26.6429 60.3753 29.8941 62.8293 30.551C65.2832 31.2088 68.0011 29.0241 68.8988 25.6717C69.7973 22.3193 68.5358 19.0681 66.0819 18.4104C63.628 17.7527 60.9101 19.9374 60.0123 23.2905Z" fill="#263762"/>
<path d="M67.6115 25.3259C68.2492 22.9458 67.3541 20.6379 65.6121 20.1712C63.8701 19.7044 61.9409 21.2555 61.3032 23.6356C60.6654 26.0157 61.5606 28.3236 63.3026 28.7904C65.0446 29.2571 66.9737 27.706 67.6115 25.3259Z" fill="#020206"/>
<path d="M63.731 24.2871C63.584 24.8346 63.7903 25.3656 64.1907 25.4729C64.5912 25.5801 65.0352 25.2231 65.1822 24.6756C65.3292 24.1281 65.123 23.5972 64.7225 23.4899C64.322 23.3827 63.878 23.7397 63.731 24.2871Z" fill="#263762"/>
<path d="M64.7801 21.5414L64.1464 21.7117C63.9026 21.7769 63.7031 21.6164 63.7031 21.3554V21.2527C63.7031 20.9909 63.9026 20.7239 64.1464 20.6587L64.7801 20.4885C65.0238 20.4232 65.2233 20.5837 65.2233 20.8447V20.9474C65.2233 21.2092 65.0238 21.4762 64.7801 21.5414Z" fill="#0D204F"/>
<path d="M64.7801 28.274L64.1464 28.4442C63.9026 28.5095 63.7031 28.349 63.7031 28.088V27.9852C63.7031 27.7235 63.9026 27.4565 64.1464 27.3912L64.7801 27.221C65.0238 27.1558 65.2233 27.3162 65.2233 27.5772V27.68C65.2233 27.9417 65.0238 28.2087 64.7801 28.274Z" fill="#0D204F"/>
<path d="M62.1597 24.6036V25.5621C62.1597 25.8141 61.9677 26.0713 61.7322 26.1343C61.4974 26.1973 61.3047 26.0428 61.3047 25.7908V24.8324C61.3047 24.5804 61.4967 24.3231 61.7322 24.2601C61.9669 24.1971 62.1597 24.3516 62.1597 24.6036Z" fill="#0D204F"/>
<path d="M67.6206 23.1403V24.0988C67.6206 24.3508 67.4286 24.608 67.1931 24.671C66.9584 24.734 66.7656 24.5795 66.7656 24.3275V23.3691C66.7656 23.1171 66.9576 22.8598 67.1931 22.7968C67.4279 22.7338 67.6206 22.8883 67.6206 23.1403Z" fill="#0D204F"/>
<path d="M62.592 26.6735L63.0825 27.1467C63.243 27.3019 63.243 27.6259 63.0825 27.8674L63.063 27.8967C62.9025 28.1382 62.6393 28.2087 62.478 28.0534L61.9876 27.5802C61.8271 27.4249 61.8271 27.1009 61.9876 26.8594L62.0071 26.8302C62.1676 26.5887 62.4308 26.5182 62.592 26.6735Z" fill="#0D204F"/>
<path d="M66.4514 20.8776L66.9419 21.3509C67.1024 21.5061 67.1024 21.8301 66.9419 22.0716L66.9224 22.1009C66.7619 22.3424 66.4987 22.4129 66.3374 22.2576L65.8469 21.7844C65.6864 21.6291 65.6864 21.3051 65.8469 21.0636L65.8664 21.0344C66.0269 20.7929 66.2902 20.7224 66.4514 20.8776Z" fill="#0D204F"/>
<path d="M65.8469 26.405L66.3374 25.6685C66.4979 25.427 66.7612 25.3565 66.9224 25.5118L66.9419 25.5305C67.1024 25.6858 67.1024 26.0098 66.9419 26.2512L66.4514 26.9877C66.2909 27.2292 66.0277 27.2997 65.8664 27.1445L65.8469 27.1257C65.6864 26.9705 65.6864 26.6465 65.8469 26.405Z" fill="#0D204F"/>
<path d="M61.9876 22.6798L62.478 21.9434C62.6385 21.7019 62.9018 21.6314 63.063 21.7866L63.0825 21.8054C63.243 21.9606 63.243 22.2846 63.0825 22.5261L62.592 23.2626C62.4315 23.5041 62.1683 23.5746 62.0071 23.4193L61.9876 23.4006C61.8271 23.2453 61.8271 22.9213 61.9876 22.6798Z" fill="#0D204F"/>
<path d="M23.6764 33.0785C22.7779 36.4309 24.0394 39.682 26.4933 40.339C28.9472 40.9967 31.6652 38.812 32.5629 35.4596C33.4614 32.1072 32.1999 28.8561 29.746 28.1984C27.292 27.5406 24.5741 29.7253 23.6764 33.0785Z" fill="#263762"/>
<path d="M31.2755 35.1137C31.9133 32.7336 31.0181 30.4257 29.2761 29.9589C27.5342 29.4922 25.605 31.0433 24.9673 33.4234C24.3295 35.8035 25.2247 38.1114 26.9666 38.5781C28.7086 39.0449 30.6378 37.4938 31.2755 35.1137Z" fill="#020206"/>
<path d="M27.3951 34.0745C27.2481 34.6219 27.4543 35.1529 27.8548 35.2602C28.2553 35.3674 28.6993 35.0104 28.8463 34.463C28.9933 33.9155 28.787 33.3845 28.3865 33.2772C27.9861 33.17 27.5421 33.527 27.3951 34.0745Z" fill="#263762"/>
<path d="M28.4442 31.3288L27.8104 31.499C27.5667 31.5643 27.3672 31.4038 27.3672 31.1428V31.04C27.3672 30.7783 27.5667 30.5113 27.8104 30.4461L28.4442 30.2758C28.6879 30.2106 28.8874 30.3711 28.8874 30.632V30.7348C28.8874 30.9965 28.6879 31.2635 28.4442 31.3288Z" fill="#0D204F"/>
<path d="M28.4442 38.0613L27.8104 38.2316C27.5667 38.2968 27.3672 38.1363 27.3672 37.8753V37.7726C27.3672 37.5108 27.5667 37.2438 27.8104 37.1786L28.4442 37.0084C28.6879 36.9431 28.8874 37.1036 28.8874 37.3646V37.4673C28.8874 37.7291 28.6879 37.9961 28.4442 38.0613Z" fill="#0D204F"/>
<path d="M25.8237 34.391V35.3495C25.8237 35.6014 25.6317 35.8587 25.3962 35.9217C25.1615 35.9847 24.9688 35.8302 24.9688 35.5782V34.6197C24.9688 34.3677 25.1607 34.1105 25.3962 34.0475C25.631 33.9845 25.8237 34.139 25.8237 34.391Z" fill="#0D204F"/>
<path d="M31.2886 32.9277V33.8861C31.2886 34.1381 31.0966 34.3954 30.8611 34.4584C30.6263 34.5214 30.4336 34.3669 30.4336 34.1149V33.1564C30.4336 32.9044 30.6256 32.6472 30.8611 32.5842C31.0958 32.5212 31.2886 32.6757 31.2886 32.9277Z" fill="#0D204F"/>
<path d="M26.2561 36.4608L26.7466 36.934C26.9071 37.0893 26.9071 37.4133 26.7466 37.6548L26.7271 37.684C26.5666 37.9255 26.3034 37.996 26.1421 37.8408L25.6516 37.3675C25.4911 37.2123 25.4911 36.8883 25.6516 36.6468L25.6711 36.6176C25.8316 36.3761 26.0949 36.3056 26.2561 36.4608Z" fill="#0D204F"/>
<path d="M30.1155 30.665L30.606 31.1382C30.7665 31.2935 30.7665 31.6175 30.606 31.859L30.5865 31.8882C30.426 32.1297 30.1627 32.2002 30.0015 32.045L29.511 31.5717C29.3505 31.4165 29.3505 31.0925 29.511 30.851L29.5305 30.8217C29.691 30.5803 29.9542 30.5098 30.1155 30.665Z" fill="#0D204F"/>
<path d="M29.511 36.1932L30.0015 35.4567C30.162 35.2152 30.4252 35.1447 30.5865 35.3L30.606 35.3187C30.7665 35.474 30.7665 35.798 30.606 36.0395L30.1155 36.7759C29.955 37.0174 29.6917 37.0879 29.5305 36.9327L29.511 36.9139C29.3505 36.7587 29.3505 36.4347 29.511 36.1932Z" fill="#0D204F"/>
<path d="M25.6516 32.4672L26.1421 31.7307C26.3026 31.4892 26.5658 31.4187 26.7271 31.574L26.7466 31.5927C26.9071 31.748 26.9071 32.072 26.7466 32.3134L26.2561 33.0499C26.0956 33.2914 25.8324 33.3619 25.6711 33.2067L25.6516 33.1879C25.4911 33.0327 25.4911 32.7087 25.6516 32.4672Z" fill="#0D204F"/>
</svg>
