<svg width="48" height="48" viewBox="0 0 48 48" fill="none" xmlns="http://www.w3.org/2000/svg">
<path d="M22.6168 18.5406V11.4873H19.617C16.8992 11.4873 14.5129 13.3199 13.8108 15.9447L13.0879 18.5406H22.6168Z" fill="#FEFEFE"/>
<path d="M25.4278 18.5406H34.9567L34.2338 15.9446C33.5318 13.3198 31.1455 11.4873 28.4275 11.4873H25.4277L25.4278 18.5406Z" fill="#FEFEFE"/>
<path d="M10.4344 21.3525C8.58223 22.407 7.39648 24.3901 7.39648 26.5753V29.6347H9.78767C9.89858 26.6073 12.3945 24.1784 15.4485 24.1784C18.5025 24.1784 20.9984 26.6073 21.1093 29.6347H26.8908C27.0017 26.6073 29.4976 24.1784 32.5516 24.1784C35.6056 24.1784 38.1015 26.6073 38.2124 29.6347H40.649V26.5753C40.649 24.3901 39.4633 22.407 37.6112 21.3525H10.4344Z" fill="#FEFEFE"/>
<path d="M2.81445 23.7184C2.89001 18.0595 5.16467 12.7687 9.21945 8.82067C13.2742 4.87267 18.6245 2.74117 24.2827 2.81552C29.6044 2.88658 34.6754 4.95817 38.5155 8.56839L35.8013 8.53211L35.7638 11.3444L43.1694 11.4433L43.2682 4.03764L40.456 4.00014L40.4226 6.50158C36.0754 2.42345 30.3396 0.0835472 24.3203 0.00320344C17.9098 -0.0829528 11.8505 2.33345 7.25745 6.80552C2.66435 11.2776 0.0877284 17.2707 0.0022284 23.6808C-0.0475528 27.4096 0.736947 30.9948 2.33388 34.3363L4.87151 33.1236C3.46263 30.1756 2.77048 27.0112 2.81445 23.7184Z" fill="#FEFEFE"/>
<path d="M45.1842 24.2832C45.1087 29.942 42.834 35.2329 38.7793 39.1809C34.7245 43.1289 29.3742 45.2604 23.716 45.186C18.3942 45.115 13.3233 43.0434 9.48322 39.4332L12.1974 39.4694L12.2349 36.6571L4.82928 36.5582L4.73047 43.9639L7.54269 44.0014L7.57606 41.5C11.9232 45.5781 17.659 47.9179 23.6783 47.9983C30.0887 48.0844 36.1481 45.668 40.7411 41.1959C45.3342 36.7238 47.9108 30.7306 47.9963 24.3206C48.0461 20.5918 47.2616 17.0066 45.6646 13.665L43.127 14.8778C44.5362 17.8259 45.2282 20.9904 45.1842 24.2832Z" fill="#FEFEFE"/>
<path d="M15.4473 32.6983C17.0233 32.6983 18.3009 31.4208 18.3009 29.8448C18.3009 28.2688 17.0233 26.9912 15.4473 26.9912C13.8713 26.9912 12.5938 28.2688 12.5938 29.8448C12.5938 31.4208 13.8713 32.6983 15.4473 32.6983Z" fill="#FEFEFE"/>
<path d="M32.5508 26.9912C30.9773 26.9912 29.6973 28.2713 29.6973 29.8448C29.6973 31.4183 30.9774 32.6983 32.5508 32.6983C34.1243 32.6983 35.4045 31.4183 35.4045 29.8448C35.4045 28.2713 34.1243 26.9912 32.5508 26.9912Z" fill="#FEFEFE"/>
</svg>
