<svg width="48" height="48" viewBox="0 0 48 48" fill="none" xmlns="http://www.w3.org/2000/svg">
<g clip-path="url(#clip0_4737_6256)">
<path d="M22.6149 18.5398V11.4865H19.6151C16.8972 11.4865 14.5109 13.3191 13.8088 15.9439L13.0859 18.5398H22.6149Z" fill="#45D5EC"/>
<path d="M25.4298 18.5398H34.9586L34.2357 15.9439C33.5337 13.319 31.1474 11.4865 28.4295 11.4865H25.4297L25.4298 18.5398Z" fill="#45D5EC"/>
<path d="M10.4324 21.3523C8.58028 22.4068 7.39453 24.3899 7.39453 26.575V29.6344H9.78572C9.89662 26.607 12.3925 24.1781 15.4465 24.1781C18.5005 24.1781 20.9964 26.607 21.1073 29.6344H26.8888C26.9997 26.607 29.4956 24.1781 32.5496 24.1781C35.6036 24.1781 38.0995 26.607 38.2104 29.6344H40.6471V26.575C40.6471 24.3899 39.4613 22.4068 37.6092 21.3523H10.4324Z" fill="#45D5EC"/>
<path d="M2.81445 23.7179C2.89001 18.0591 5.16467 12.7682 9.21945 8.82018C13.2742 4.87218 18.6245 2.74068 24.2827 2.81503C29.6044 2.88609 34.6754 4.95768 38.5155 8.5679L35.8013 8.53162L35.7638 11.3439L43.1694 11.4428L43.2682 4.03715L40.456 3.99965L40.4226 6.50109C36.0754 2.42297 30.3396 0.0830589 24.3203 0.00271516C17.9098 -0.0834411 11.8505 2.33297 7.25745 6.80503C2.66435 11.2771 0.0877284 17.2702 0.0022284 23.6803C-0.0475528 27.4091 0.736947 30.9943 2.33388 34.3358L4.87151 33.1231C3.46263 30.1751 2.77048 27.0107 2.81445 23.7179Z" fill="#45D5EC"/>
<path d="M45.1842 24.2827C45.1087 29.9415 42.834 35.2324 38.7793 39.1804C34.7245 43.1284 29.3742 45.2599 23.716 45.1856C18.3942 45.1145 13.3233 43.0429 9.48322 39.4327L12.1974 39.469L12.2349 36.6567L4.82928 36.5578L4.73047 43.9635L7.54269 44.001L7.57606 41.4995C11.9232 45.5776 17.659 47.9175 23.6783 47.9978C30.0887 48.084 36.1481 45.6675 40.7411 41.1954C45.3342 36.7233 47.9108 30.7302 47.9963 24.3201C48.0461 20.5913 47.2616 17.0061 45.6646 13.6646L43.127 14.8773C44.5362 17.8255 45.2282 20.9899 45.1842 24.2827Z" fill="#45D5EC"/>
<path d="M15.4473 32.6977C17.0233 32.6977 18.3009 31.4201 18.3009 29.8441C18.3009 28.2682 17.0233 26.9906 15.4473 26.9906C13.8713 26.9906 12.5938 28.2682 12.5938 29.8441C12.5938 31.4201 13.8713 32.6977 15.4473 32.6977Z" fill="#45D5EC"/>
<path d="M32.5528 26.9906C30.9793 26.9906 29.6992 28.2706 29.6992 29.8441C29.6992 31.4176 30.9794 32.6977 32.5528 32.6977C34.1263 32.6977 35.4064 31.4176 35.4064 29.8441C35.4064 28.2706 34.1263 26.9906 32.5528 26.9906Z" fill="#45D5EC"/>
</g>
<defs>
<clipPath id="clip0_4737_6256">
<rect width="48" height="48" fill="white"/>
</clipPath>
</defs>
</svg>
