<svg width="96" height="48" viewBox="0 0 96 48" fill="none" xmlns="http://www.w3.org/2000/svg">
<path d="M71.5586 26.8728C68.5932 26.0726 63.7411 26.0726 60.7756 26.8728L6.72128 40.0344C-1.208 41.521 22.5909 49.6136 31.6025 47.7124C33.2925 47.3558 35.3633 46.8984 39.4186 45.8484C47.4804 43.7603 69.196 38.047 74.1612 36.3996C80.9544 34.1459 84.2124 33.1746 85.1636 32.5268C86.1148 31.879 86.4742 30.9001 83.5088 30.0992L71.5579 26.8735L71.5586 26.8728Z" fill="#576485"/>
<path d="M18.7135 17.6144L15.0707 20.9077C15.0707 20.9077 14.583 18.249 15.2128 17.5937C16.1627 16.6044 18.7135 17.6137 18.7135 17.6137V17.6144Z" fill="#EBEDF0"/>
<path d="M33.531 19.9737L35.2093 20.4269C35.4176 20.4835 35.5625 20.6732 35.5625 20.8905V25.1061C35.5625 25.3496 35.3914 25.5594 35.1541 25.6063L34.8209 25.6718C34.7333 25.689 34.6429 25.6863 34.5567 25.6635L33.0667 25.2696C32.7694 25.191 32.5625 24.9206 32.5625 24.6108V20.8311C32.5625 20.5552 32.6832 20.2937 32.8929 20.1165C33.0695 19.9668 33.3082 19.9136 33.531 19.9737Z" fill="#263762"/>
<mask id="mask0_4748_5865" style="mask-type:luminance" maskUnits="userSpaceOnUse" x="32" y="19" width="4" height="7">
<path d="M33.531 19.9736L35.2093 20.4269C35.4176 20.4834 35.5625 20.6731 35.5625 20.8904V25.1061C35.5625 25.3496 35.3914 25.5593 35.1541 25.6062L34.8209 25.6718C34.7333 25.689 34.6429 25.6863 34.5567 25.6635L33.0667 25.2696C32.7694 25.1909 32.5625 24.9205 32.5625 24.6108V20.8311C32.5625 20.5552 32.6832 20.2937 32.8929 20.1164C33.0695 19.9667 33.3082 19.9136 33.531 19.9736Z" fill="white"/>
</mask>
<g mask="url(#mask0_4748_5865)">
<path d="M35.4204 25.9008H34.8672V21.0477L35.4204 20.7801V25.9008Z" fill="#020206"/>
</g>
<path d="M65.8365 27.3543C64.9625 30.6408 66.1896 33.8272 68.577 34.4715C70.9645 35.1158 73.6092 32.9745 74.4831 29.6888C75.3571 26.403 74.13 23.216 71.7425 22.5716C69.3545 21.9273 66.7104 24.0686 65.8365 27.3543Z" fill="#020206"/>
<path d="M68.5781 34.4715L72.1023 35.4228L75.2678 23.523L71.7436 22.5717L68.5781 34.4715Z" fill="#020206"/>
<path d="M24.649 38.4809C23.775 41.7673 25.0021 44.9537 27.3895 45.598C29.777 46.2424 32.4217 44.1011 33.2956 40.8146C34.1696 37.5289 32.9425 34.3425 30.5551 33.6975C28.1676 33.0532 25.5229 35.1945 24.649 38.4802V38.4809Z" fill="#020206"/>
<path d="M27.3906 45.598L30.9148 46.5494L34.0803 34.6488L30.5561 33.6975L27.3906 45.598Z" fill="#020206"/>
<path d="M78.3831 29.0403L74.2071 28.5471L41.3235 36.877L37.1577 42.1778L28.1172 40.6974L29.0077 32.9669L80.5257 18.9996L80.7595 24.7102L78.3831 29.0403Z" fill="#020206"/>
<path d="M82.6387 19.9495C82.6387 19.9495 82.3448 15.0419 81.2832 12.126C79.6187 7.55366 77.0292 4.76598 76.3711 4.54868C73.8685 3.66844 59.9138 -0.182292 58.5983 0.00672568C54.4388 0.604133 39.1749 4.39829 32.5638 6.37609C29.4273 7.31497 29.5673 6.93555 26.081 9.26172C22.5941 11.5879 14.7186 21.0098 14.7186 21.0098C14.7186 21.0098 9.73822 23.4746 6.97211 26.6562C4.96203 28.9686 5.25726 30.7836 5.08274 31.0643C3.24856 34.0141 4.05494 37.8421 5.22208 39.635C6.83415 42.1102 13.7315 44.1335 22.392 45.0172C24.1413 45.1959 25.2402 44.8282 26.7129 44.4184C26.6136 42.8456 26.3804 41.1451 26.7157 39.4494C27.4882 35.5428 30.253 32.5323 33.7151 33.0201C36.2784 33.3808 38.3533 36.6162 37.5062 42.1785L68.0397 33.4692C68.0397 33.4692 67.6023 29.7343 68.0728 27.8221C69.0226 23.9637 72.5268 21.1954 75.1329 21.899C77.59 22.562 79.0027 25.7318 78.5819 29.041C79.4297 28.256 80.6693 28.5098 82.0254 26.9094C82.5159 26.3306 83.2512 24.5998 83.2491 21.6155C83.2484 20.687 82.6373 19.9502 82.6373 19.9502L82.6387 19.9495Z" fill="#EBEDF0"/>
<mask id="mask1_4748_5865" style="mask-type:luminance" maskUnits="userSpaceOnUse" x="4" y="0" width="80" height="46">
<path d="M82.6387 19.9495C82.6387 19.9495 82.3448 15.0419 81.2832 12.126C79.6187 7.55366 77.0292 4.76598 76.3711 4.54868C73.8685 3.66844 59.9138 -0.182292 58.5983 0.00672568C54.4388 0.604133 39.1749 4.39829 32.5638 6.37609C29.4273 7.31497 29.5673 6.93555 26.081 9.26172C22.5941 11.5879 14.7186 21.0098 14.7186 21.0098C14.7186 21.0098 9.73822 23.4746 6.97211 26.6562C4.96203 28.9686 5.25726 30.7836 5.08274 31.0643C3.24856 34.0141 4.05494 37.8421 5.22208 39.635C6.83415 42.1102 13.7315 44.1335 22.392 45.0172C24.1413 45.1959 25.2402 44.8282 26.7129 44.4184C26.6136 42.8456 26.3804 41.1451 26.7157 39.4494C27.4882 35.5428 30.253 32.5323 33.7151 33.0201C36.2784 33.3808 38.3533 36.6162 37.5062 42.1785L68.0397 33.4692C68.0397 33.4692 67.6023 29.7343 68.0728 27.8221C69.0226 23.9637 72.5268 21.1954 75.1329 21.899C77.59 22.562 79.0027 25.7318 78.5819 29.041C79.4297 28.256 80.6693 28.5098 82.0254 26.9094C82.5159 26.3306 83.2512 24.5998 83.2491 21.6155C83.2484 20.687 82.6373 19.9502 82.6373 19.9502L82.6387 19.9495Z" fill="white"/>
</mask>
<g mask="url(#mask1_4748_5865)">
<path d="M47.3229 10.0212L34.5547 6.5996L50.3243 2.78888L63.0925 6.21052L47.3229 10.0212Z" fill="#263762"/>
<path d="M43.5153 13.9251C36.3724 12.8124 28.7956 10.6311 26.0812 9.26102C23.2509 11.4071 16.7764 17.4668 14.7188 21.0091C17.2358 23.098 27.5822 25.6408 33.3986 26.0512C36.9601 21.2775 40.4663 16.7148 43.5146 13.9251H43.5153Z" fill="#020206"/>
<path d="M15.3991 20.8091C17.5768 22.0253 25.4427 24.5894 33.4947 25.5518C33.4947 25.5518 34.7881 23.6588 33.9369 23.038C31.0714 20.9464 26.6581 21.9466 23.3608 21.1871C15.802 19.4466 15.3984 20.8091 15.3984 20.8091H15.3991Z" fill="#263762"/>
<path d="M28.2695 13.5146L32.2159 14.5798L33.6624 13.187L29.716 12.1218L28.2695 13.5146Z" fill="#263762"/>
<path d="M85.3708 12.7737C75.1313 16.9783 43.2576 26.7735 35.2352 28.6981C31.3489 29.6308 28.0392 30.8788 25.9781 34.1569C24.2156 36.9605 24.2529 40.3221 20.1099 40.8264C16.2553 41.2961 4.25823 38.6533 2.55441 35.1524C2.00257 34.0183 3.9761 43.029 3.9761 43.029L21.0591 46.9867L85.7709 28.5471L85.3708 12.7737Z" fill="#C4C9D2"/>
<path opacity="0.2" d="M73.1192 0.926271C70.9877 2.50947 33.6728 6.31329 29.3629 10.7304C26.0484 14.1272 23.2885 18.9996 21.4316 23.7802C16.1249 25.2599 10.3954 24.17 4.98047 28.5215L25.4455 3.36212L58.1567 -2.25323L73.1192 0.925582V0.926271Z" fill="white"/>
</g>
<path d="M78.6929 16.2788L67.643 19.586L67.543 18.6195L78.5936 15.3117L78.6929 16.2788Z" fill="#263762"/>
<path d="M81.8005 13.7374C82.2054 15.3938 82.4545 17.5647 82.6386 19.9495L81.2597 20.4572L81.1411 15.6476C81.1204 15.0199 81.8005 13.7368 81.8005 13.7368V13.7374Z" fill="#667290"/>
<path d="M59.0529 22.6068L56.2578 23.4057V24.6129L59.0529 23.814V22.6068Z" fill="#667290"/>
<path d="M53.9865 24.0182L51.1914 24.8171V26.0243L53.9865 25.2255V24.0182Z" fill="#667290"/>
<path d="M28.0826 39.4598C27.2086 42.7221 28.4357 45.885 30.8231 46.5252C33.2105 47.1647 35.8553 45.0393 36.7292 41.777C37.6032 38.5147 36.3761 35.3517 33.9886 34.7116C31.6012 34.0714 28.9565 36.1975 28.0826 39.4598Z" fill="#263762"/>
<path d="M29.0435 39.7164C28.3634 42.255 29.3181 44.7164 31.1764 45.2145C33.0347 45.7126 35.0917 44.0583 35.7719 41.5197C36.452 38.981 35.4973 36.5196 33.639 36.0216C31.7807 35.5235 29.723 37.1778 29.0428 39.7164H29.0435Z" fill="#E5E7EC"/>
<path d="M29.5494 39.853C28.9721 42.0074 29.7826 44.0969 31.3595 44.5198C32.9364 44.9427 34.683 43.5382 35.2603 41.3838C35.8377 39.2287 35.0272 37.1398 33.4503 36.7169C31.8734 36.2941 30.1268 37.6986 29.5494 39.853Z" fill="#020206"/>
<path d="M34.3445 40.4194L35.1612 41.7087C35.3854 42.0619 35.0709 42.68 34.6825 42.6489L33.267 42.5372C33.098 42.5241 32.9173 42.6448 32.8083 42.8435L31.8971 44.5108C31.6474 44.9682 31.1383 44.9006 31.1224 44.4081L31.0638 42.6124C31.0569 42.3985 30.9452 42.2385 30.7803 42.2074L29.4007 41.9487C29.0227 41.8777 29.0227 41.2182 29.4007 40.945L30.7803 39.9468C30.9452 39.8275 31.0569 39.6081 31.0638 39.3901L31.1224 37.5627C31.1383 37.0619 31.6474 36.7218 31.8971 37.0446L32.8083 38.2236C32.9166 38.3643 33.098 38.3884 33.267 38.2843L34.6825 37.4137C35.0709 37.175 35.3854 37.6241 35.1612 38.0973L34.3445 39.824C34.2473 40.0303 34.2473 40.2641 34.3445 40.418V40.4194Z" fill="#E5E7EC"/>
<path d="M31.6984 40.429C31.5556 40.9616 31.7563 41.4783 32.146 41.5831C32.5358 41.688 32.9676 41.3403 33.1104 40.8077C33.2532 40.2752 33.0524 39.7585 32.6627 39.6536C32.273 39.5495 31.8411 39.8965 31.6984 40.429Z" fill="#263762"/>
<path d="M69.2701 28.3332C68.3961 31.5955 69.6232 34.7585 72.0106 35.3987C74.398 36.0381 77.0428 33.9127 77.9167 30.6504C78.7907 27.3881 77.5636 24.2252 75.1761 23.585C72.7887 22.9455 70.144 25.071 69.2701 28.3332Z" fill="#263762"/>
<path d="M70.231 28.5898C69.5509 31.1285 70.5056 33.5899 72.3639 34.0879C74.2222 34.586 76.2792 32.9317 76.9594 30.3931C77.6395 27.8545 76.6848 25.3931 74.8265 24.895C72.9682 24.3969 70.9105 26.0512 70.231 28.5898Z" fill="#E5E7EC"/>
<path d="M70.7369 28.7264C70.1596 30.8808 70.9701 32.9704 72.547 33.3933C74.1239 33.8161 75.8705 32.4116 76.4478 30.2572C77.0252 28.1021 76.2147 26.0133 74.6378 25.5904C73.0609 25.1675 71.3143 26.5721 70.7369 28.7264Z" fill="#020206"/>
<path d="M75.532 29.2928L76.3487 30.5821C76.5729 30.9353 76.2584 31.5534 75.87 31.5224L74.4545 31.4106C74.2855 31.3975 74.1048 31.5182 73.9958 31.7169L73.0846 33.3843C72.8349 33.8417 72.3258 33.774 72.3099 33.2815L72.2513 31.4858C72.2444 31.272 72.1327 31.1119 71.9678 31.0809L70.5882 30.8222C70.2102 30.7511 70.2102 30.0916 70.5882 29.8185L71.9678 28.8203C72.1327 28.7009 72.2444 28.4815 72.2513 28.2635L72.3099 26.4361C72.3258 25.9353 72.8349 25.5952 73.0846 25.9181L73.9958 27.097C74.1041 27.2377 74.2855 27.2619 74.4545 27.1577L75.87 26.2871C76.2584 26.0484 76.5729 26.4975 76.3487 26.9708L75.532 28.6975C75.4348 28.9037 75.4348 29.1376 75.532 29.2914V29.2928Z" fill="#E5E7EC"/>
<path d="M72.8859 29.3025C72.7431 29.835 72.9432 30.3517 73.3336 30.4566C73.7233 30.5614 74.1552 30.2138 74.298 29.6812C74.4407 29.1486 74.24 28.6319 73.8503 28.5271C73.4605 28.4229 73.0287 28.7699 72.8859 29.3025Z" fill="#263762"/>
<path d="M7.96094 39.2535L13.2483 40.6705V38.4443L7.96094 37.0274V39.2535Z" fill="#020206"/>
<path d="M7.62891 39.3274L12.9169 40.7443V38.5189L7.62891 37.1019V39.3274Z" fill="white"/>
<path d="M35.2031 27.2791L75.4014 14.9771C76.9748 14.4997 78.0219 13.9465 77.3073 12.4654C76.2112 10.1937 74.6495 6.3333 71.9206 6.71617C68.4896 7.19768 49.8518 11.1153 46.0937 13.5201C41.2851 16.5969 35.2038 27.2791 35.2038 27.2791H35.2031Z" fill="#020206"/>
<path d="M15.9023 35.4076C18.1608 35.6277 21.0593 35.0372 22.3927 34.597C23.7261 34.1569 26.6688 31.8922 23.911 32.0087C21.1531 32.126 18.4008 32.6786 17.5889 32.9504C16.777 33.2222 15.903 35.4069 15.903 35.4069L15.9023 35.4076Z" fill="#667290"/>
<path d="M7.18793 33.0518C6.18357 32.7027 4.97987 31.6355 5.14404 30.6201C5.37237 29.0079 5.69244 28.525 6.12494 27.7993C6.50157 27.1674 7.09205 29.8212 7.24449 30.3945C7.39694 30.9678 7.18793 33.0518 7.18793 33.0518Z" fill="#667290"/>
<path d="M53.4673 21.2002L55.418 20.5566L54.2888 11.6355L52.6133 12.1122L53.4673 21.2002Z" fill="#263762"/>
<path d="M66.1867 17.3743L68.1375 16.7307L65.8411 8.76639L64.2656 9.14373L66.1867 17.3743Z" fill="#263762"/>
<path d="M43.5156 13.9251C43.5156 13.9251 45.9948 11.9239 49.7321 10.6194C52.2334 9.74669 69.7419 5.29304 76.086 4.46591" stroke="#020206" stroke-width="0.5" stroke-miterlimit="10"/>
<path d="M65.0542 8.79196L67.3678 17.5158C68.3618 21.3775 66.8352 31.7991 65.5529 32.3006C64.2706 32.8014 38.8706 39.8241 38.8706 39.8241L38.1705 26.3782L37.8359 23.7513" stroke="#020206" stroke-width="0.5" stroke-miterlimit="10"/>
<path d="M54.9008 35.3587C55.7258 29.8302 55.5623 24.853 54.4393 21.441L53.4688 11.6458" stroke="#020206" stroke-width="0.5" stroke-miterlimit="10"/>
<path d="M23.9102 32.0094C23.9102 32.0094 30.6854 28.1532 31.6525 27.651C32.5637 27.1778 32.9652 26.6321 33.3984 26.0519" stroke="#020206" stroke-width="0.5" stroke-miterlimit="10"/>
<path d="M77.1758 23.1766C77.1758 23.1766 77.8332 21.7052 78.6954 21.3844C79.5577 21.0636 82.6404 19.9626 82.6404 19.9626" stroke="#020206" stroke-width="0.5" stroke-miterlimit="10"/>
<path opacity="0.2" d="M37.5625 25.5152C47.5612 17.862 62.2485 14.7184 75.2671 11.0022C75.2671 11.0022 73.942 7.26115 71.4884 7.64402C68.5098 8.10898 50.5129 12.0618 47.1245 14.2293C42.7898 17.0025 37.5625 25.5145 37.5625 25.5145V25.5152Z" fill="white"/>
<path d="M38.7338 25.7615C38.7338 25.7615 38.4379 25.8387 39.1828 26.3437C39.9947 26.8942 42.894 27.8338 43.6397 27.5358C44.6854 27.1191 45.022 24.8357 44.4867 24.657C43.1451 24.2079 42.6719 23.7761 42.2221 23.8023C41.7724 23.8285 38.7338 25.7615 38.7338 25.7615Z" fill="#BEC3CD"/>
<path d="M37.5508 25.3972C37.5508 25.3972 39.8154 23.0062 40.8763 22.9855C41.702 22.9696 43.6293 23.0469 44.0756 24.1403C44.5219 25.2337 43.1747 25.8222 41.462 26.174C39.7492 26.5251 38.5793 26.2582 38.1633 26.034C37.7481 25.8104 37.5508 25.3972 37.5508 25.3972Z" fill="#EBEDF0"/>
<mask id="mask2_4748_5865" style="mask-type:luminance" maskUnits="userSpaceOnUse" x="37" y="22" width="8" height="5">
<path d="M37.5508 25.3972C37.5508 25.3972 39.8154 23.0062 40.8763 22.9855C41.702 22.9696 43.6293 23.0469 44.0756 24.1403C44.5219 25.2337 43.1747 25.8221 41.462 26.174C39.7492 26.5251 38.5793 26.2581 38.1633 26.0339C37.7481 25.8104 37.5508 25.3972 37.5508 25.3972Z" fill="white"/>
</mask>
<g mask="url(#mask2_4748_5865)">
<path d="M43.0821 23.0766C43.0821 23.0766 43.2297 24.2631 41.3128 24.7225C40.3167 24.9612 37.1602 25.4462 37.1602 25.4462L37.9279 26.8397L44.272 26.9604L45.0943 24.2293L43.934 22.662L43.0821 23.0772V23.0766Z" fill="#C4C9D2"/>
</g>
<path d="M15.9042 35.4076C12.1889 34.6757 9.85737 34.0114 7.19059 33.0518L6.98158 33.4236C6.83534 34.2859 7.35546 35.1213 8.19357 35.3711C9.89807 35.8795 11.8882 36.4065 14.0424 36.8673C14.8543 37.0412 15.6752 36.5652 15.998 35.8008L15.9042 35.4076Z" fill="#CBCFD7"/>
<path d="M11.7255 33.1428C11.5952 33.5133 11.2454 33.7278 10.9426 33.6216C10.6405 33.5154 10.5004 33.129 10.6308 32.7586C10.7605 32.3881 11.1109 32.1736 11.4137 32.2798C11.7159 32.3861 11.8559 32.7724 11.7255 33.1428Z" fill="#667290"/>
</svg>
