<svg width="48" height="48" viewBox="0 0 48 48" fill="none" xmlns="http://www.w3.org/2000/svg">
<g clip-path="url(#clip0_4737_5767)">
<path d="M31.1884 9.72733H33.2222C34.409 9.72733 35.5484 9.91739 36.6118 10.2764C36.4956 8.53382 36.0933 6.8691 35.4019 5.67006C34.9228 4.83897 34.1461 4.2551 33.2148 4.02605C32.2842 3.79719 31.3262 3.95389 30.5172 4.46728L28.8516 5.52405C30.0567 6.60003 30.9035 8.06879 31.1884 9.72733Z" fill="#45D5EC"/>
<path d="M0.181626 24.4739C0.181626 25.2502 0.81104 25.8796 1.5874 25.8796H2.2813C0.86549 27.4224 0 29.4779 0 31.7319V35.1308H19.7827V31.9111H17.7556C16.9793 31.9111 16.3498 31.2817 16.3498 30.5053C16.3498 29.7289 16.9793 29.0995 17.7556 29.0995H19.7827V23.0683H1.5874C0.810946 23.0681 0.181626 23.6975 0.181626 24.4739ZM7.54228 29.0994H11.0463C11.8227 29.0994 12.4521 29.7288 12.4521 30.5052C12.4521 31.2816 11.8227 31.911 11.0463 31.911H7.54228C6.76591 31.911 6.1365 31.2816 6.1365 30.5052C6.1365 29.7288 6.76582 29.0994 7.54228 29.0994Z" fill="#45D5EC"/>
<path d="M23.9989 6.48196C21.9564 6.48196 20.2298 7.85569 19.6914 9.72734H28.3065C27.7681 7.85569 26.0415 6.48196 23.9989 6.48196Z" fill="#45D5EC"/>
<path d="M16.81 9.72733C17.0948 8.0687 17.9418 6.59994 19.1469 5.52405L17.4812 4.46719C16.6722 3.95389 15.7142 3.7972 14.7836 4.02606C13.8524 4.2551 13.0756 4.83888 12.5964 5.67007C11.9055 6.86826 11.5033 8.53139 11.3867 10.2726C12.4469 9.91608 13.5823 9.72733 14.7648 9.72733H16.81Z" fill="#45D5EC"/>
<path d="M8.0488 16.6527L6.05859 20.5547C6.89541 20.3599 7.76708 20.2566 8.66238 20.2566H19.7813V12.539H14.7649C11.8734 12.5389 9.36264 14.0768 8.0488 16.6527Z" fill="#45D5EC"/>
<path d="M28.2188 12.5389V20.2565H39.3377C40.229 20.2565 41.0969 20.3587 41.9303 20.5519L39.9389 16.6505C38.6249 14.0759 36.1144 12.5388 33.2239 12.5388L28.2188 12.5389Z" fill="#45D5EC"/>
<path d="M22.5938 12.5389H25.4053V35.1307H22.5938V12.5389Z" fill="#45D5EC"/>
<path d="M45.7201 25.8796H46.4146C47.1909 25.8796 47.8204 25.2502 47.8204 24.4738C47.8204 23.6975 47.1909 23.0681 46.4146 23.0681H28.2188V29.0993H30.2374C31.0138 29.0993 31.6432 29.7287 31.6432 30.5051C31.6432 31.2815 31.0138 31.9109 30.2374 31.9109H28.2188V35.1306H48.0014V31.7317C48.0014 29.4778 47.1359 27.4224 45.7201 25.8796ZM40.4741 31.911H37.3277C36.5514 31.911 35.9219 31.2815 35.9219 30.5052C35.9219 29.7288 36.5514 29.0994 37.3277 29.0994H40.4741C41.2505 29.0994 41.8799 29.7288 41.8799 30.5052C41.8799 31.2815 41.2506 31.911 40.4741 31.911Z" fill="#45D5EC"/>
<path d="M0.00390625 40.8101C0.00390625 42.6112 1.4692 44.0766 3.27037 44.0766H8.13596C9.93704 44.0766 11.4024 42.6113 11.4024 40.8101V37.9422H0.00390625V40.8101Z" fill="#45D5EC"/>
<path d="M36.5977 40.8101C36.5977 42.6112 38.0629 44.0766 39.864 44.0766H44.7297C46.5309 44.0766 47.9962 42.6113 47.9962 40.8101V37.9422H36.5977V40.8101Z" fill="#45D5EC"/>
</g>
<defs>
<clipPath id="clip0_4737_5767">
<rect width="48" height="48" fill="white"/>
</clipPath>
</defs>
</svg>
